<svg width="72" height="72" viewBox="0 0 72 72" fill="none" xmlns="http://www.w3.org/2000/svg">
<g clip-path="url(#clip0_1422_948)">
<path fill-rule="evenodd" clip-rule="evenodd" d="M34.5 26.8808V0H37.5V26.8809L56.4027 7.97815L58.5241 10.0995L36.0001 32.6235L13.4761 10.0995L15.5974 7.97815L34.5 26.8808ZM26.8808 34.5L7.97803 15.5973L10.0993 13.476L32.6233 35.9999L10.0993 58.5239L7.97803 56.4026L26.8806 37.5H0V34.5H26.8808ZM45.119 34.5H72.0002V37.5H45.1192L64.0218 56.4026L61.9005 58.5239L39.3765 35.9999L61.9005 13.476L64.0218 15.5973L45.119 34.5ZM37.5 45.119V72H34.5V45.1192L15.5974 64.0218L13.4761 61.9005L36.0001 39.3765L58.5241 61.9005L56.4027 64.0218L37.5 45.119Z" fill="#ff6c2d"/>
</g>
<defs>
<clipPath id="clip0_1422_948">
<rect width="72" height="72" fill="white"/>
</clipPath>
</defs>
</svg>
