<svg width="94" height="72" viewBox="0 0 94 72" fill="none" xmlns="http://www.w3.org/2000/svg">
<g clip-path="url(#clip0_1422_957)">
<path fill-rule="evenodd" clip-rule="evenodd" d="M15.9336 13.0093C8.03614 18.9839 3.28564 27.1268 3.28564 35.9999C3.28564 44.8731 8.03614 53.016 15.9336 58.9906C23.8319 64.9658 34.8106 68.7053 46.9999 68.7053C59.1893 68.7053 70.1679 64.9658 78.0663 58.9906C85.9637 53.016 90.7142 44.8731 90.7142 35.9999C90.7142 27.1268 85.9637 18.9839 78.0663 13.0093C70.1679 7.03409 59.1893 3.29456 46.9999 3.29456C34.8106 3.29456 23.8319 7.03409 15.9336 13.0093ZM14.1236 10.6168C22.5896 4.21215 34.2181 0.294556 46.9999 0.294556C59.7817 0.294556 71.4102 4.21215 79.8762 10.6168C88.3431 17.0222 93.7142 25.982 93.7142 35.9999C93.7142 46.0179 88.3431 54.9777 79.8762 61.383C71.4102 67.7877 59.7817 71.7053 46.9999 71.7053C34.2181 71.7053 22.5896 67.7877 14.1236 61.383C5.65671 54.9777 0.285645 46.0179 0.285645 35.9999C0.285645 25.982 5.65671 17.0222 14.1236 10.6168Z" fill="#ff6c2d"/>
<path fill-rule="evenodd" clip-rule="evenodd" d="M38.978 12.3574C36.6504 18.3339 35.1785 26.6922 35.1785 35.9999C35.1785 45.3076 36.6504 53.666 38.978 59.6424C40.1436 62.6354 41.4945 64.9552 42.9181 66.5013C44.3403 68.0459 45.7213 68.7053 46.9999 68.7053C48.2785 68.7053 49.6595 68.0459 51.0817 66.5013C52.5053 64.9552 53.8562 62.6354 55.0218 59.6424C57.3494 53.666 58.8213 45.3076 58.8213 35.9999C58.8213 26.6922 57.3494 18.3339 55.0218 12.3574C53.8562 9.36448 52.5053 7.04466 51.0817 5.49863C49.6595 3.95398 48.2785 3.29456 46.9999 3.29456C45.7213 3.29456 44.3403 3.95398 42.9181 5.49863C41.4945 7.04466 40.1436 9.36448 38.978 12.3574ZM40.7111 3.46654C42.4764 1.54941 44.5999 0.294556 46.9999 0.294556C49.3999 0.294556 51.5234 1.54941 53.2887 3.46654C55.0526 5.38228 56.5722 8.07172 57.8173 11.2687C60.3112 17.6722 61.8213 26.4165 61.8213 35.9999C61.8213 45.5834 60.3112 54.3277 57.8173 60.7312C56.5722 63.9282 55.0526 66.6176 53.2887 68.5333C51.5234 70.4505 49.3999 71.7053 46.9999 71.7053C44.5999 71.7053 42.4764 70.4505 40.7111 68.5333C38.9472 66.6176 37.4276 63.9282 36.1825 60.7312C33.6886 54.3277 32.1785 45.5834 32.1785 35.9999C32.1785 26.4165 33.6886 17.6722 36.1825 11.2687C37.4276 8.07172 38.9472 5.38228 40.7111 3.46654Z" fill="#ff6c2d"/>
<path fill-rule="evenodd" clip-rule="evenodd" d="M3.80598 34.9998C3.37068 35.4709 3.28564 35.7995 3.28564 36C3.28564 36.2006 3.37068 36.5291 3.80598 37.0003C4.24859 37.4793 4.97376 38.0136 6.03463 38.5691C8.15315 39.6784 11.3172 40.7226 15.353 41.6165C23.4002 43.3988 34.5899 44.514 46.9999 44.514C59.41 44.514 70.5996 43.3988 78.6469 41.6165C82.6827 40.7226 85.8467 39.6784 87.9652 38.5691C89.0261 38.0136 89.7513 37.4793 90.1939 37.0003C90.6292 36.5291 90.7142 36.2006 90.7142 36C90.7142 35.7995 90.6292 35.4709 90.1939 34.9998C89.7513 34.5208 89.0261 33.9865 87.9652 33.431C85.8467 32.3217 82.6827 31.2775 78.6469 30.3836C70.5996 28.6013 59.41 27.4861 46.9999 27.4861C34.5899 27.4861 23.4002 28.6013 15.353 30.3836C11.3172 31.2775 8.15315 32.3217 6.03463 33.431C4.97376 33.9865 4.24859 34.5208 3.80598 34.9998ZM14.7042 27.4546C23.0213 25.6125 34.4388 24.4861 46.9999 24.4861C59.561 24.4861 70.9785 25.6125 79.2956 27.4546C83.442 28.3729 86.8995 29.4865 89.3569 30.7733C90.584 31.4159 91.6354 32.1392 92.3974 32.964C93.1666 33.7966 93.7142 34.818 93.7142 36C93.7142 37.1821 93.1666 38.2035 92.3974 39.0361C91.6354 39.8608 90.584 40.5842 89.3569 41.2268C86.8995 42.5136 83.442 43.6272 79.2956 44.5455C70.9785 46.3875 59.561 47.514 46.9999 47.514C34.4388 47.514 23.0213 46.3875 14.7042 44.5455C10.5579 43.6272 7.1004 42.5136 4.64298 41.2268C3.41589 40.5842 2.36448 39.8608 1.6025 39.0361C0.833209 38.2035 0.285645 37.1821 0.285645 36C0.285645 34.818 0.833209 33.7966 1.6025 32.964C2.36448 32.1392 3.41589 31.4159 4.64298 30.7733C7.1004 29.4865 10.5579 28.3729 14.7042 27.4546Z" fill="#ff6c2d"/>
<path fill-rule="evenodd" clip-rule="evenodd" d="M46.9999 3.29456C30.5028 3.29456 16.9285 17.8218 16.9285 35.9999C16.9285 54.1781 30.5028 68.7053 46.9999 68.7053C63.497 68.7053 77.0713 54.1781 77.0713 35.9999C77.0713 17.8218 63.497 3.29456 46.9999 3.29456ZM13.9285 35.9999C13.9285 16.3958 28.6241 0.294556 46.9999 0.294556C65.3756 0.294556 80.0713 16.3958 80.0713 35.9999C80.0713 55.604 65.3756 71.7053 46.9999 71.7053C28.6241 71.7053 13.9285 55.604 13.9285 35.9999Z" fill="#ff6c2d"/>
</g>
<defs>
<clipPath id="clip0_1422_957">
<rect width="94" height="72" fill="white"/>
</clipPath>
</defs>
</svg>
